<svg xmlns="http://www.w3.org/2000/svg" viewBox="0 0 255.58 255.7"><defs><style>.cls-1{fill:#302b63;}.cls-2{fill:#f4efe7;}.cls-3{fill:orange;}.cls-4{fill:#c23316;}.cls-5{fill:#191715;}</style></defs><title>logo</title><g id="Text"><ellipse class="cls-1" cx="127.79" cy="128.65" rx="127.79" ry="126.64"/><path class="cls-2" d="M100,204.48l9.56,24.36,9.59-24.36v47.73h-3.87V230.63l.1-5.81-2.2,5.86-3.6,9.09v.06l0,0v0L106,230.65l-2.2-5.83.13,5.75v21.64H100Z" transform="translate(-97.21 -103.34)"/><path class="cls-2" d="M133.6,252.76a5.53,5.53,0,0,1-2-.42,5.85,5.85,0,0,1-2-1.44,11.29,11.29,0,0,1-1.89-2.74,21.14,21.14,0,0,1-1.58-4.33,45.43,45.43,0,0,1-1.07-6.22,90,90,0,0,1,0-16.74,45.43,45.43,0,0,1,1.07-6.22,21.14,21.14,0,0,1,1.58-4.33,11.29,11.29,0,0,1,1.89-2.74,6,6,0,0,1,2-1.44,5.19,5.19,0,0,1,4.09,0,6,6,0,0,1,2.06,1.44,11.88,11.88,0,0,1,1.89,2.74,21.17,21.17,0,0,1,1.57,4.33,45.43,45.43,0,0,1,1.07,6.22,90,90,0,0,1,0,16.74,45.43,45.43,0,0,1-1.07,6.22,21.17,21.17,0,0,1-1.57,4.33,11.88,11.88,0,0,1-1.89,2.74,5.91,5.91,0,0,1-2.06,1.44A5.56,5.56,0,0,1,133.6,252.76Zm0-5.31a2.58,2.58,0,0,0,1.77-.88,7.81,7.81,0,0,0,1.61-3,29.28,29.28,0,0,0,1.17-5.6,83.64,83.64,0,0,0,0-17.52,29.28,29.28,0,0,0-1.17-5.6,7.89,7.89,0,0,0-1.61-3,2.22,2.22,0,0,0-3.54,0,7.89,7.89,0,0,0-1.61,3,30.08,30.08,0,0,0-1.17,5.6,83.64,83.64,0,0,0,0,17.52,30.08,30.08,0,0,0,1.17,5.6,7.81,7.81,0,0,0,1.61,3A2.58,2.58,0,0,0,133.6,247.45Z" transform="translate(-97.21 -103.34)"/><path class="cls-2" d="M145.16,206.24h4.16l4.57,24.59.87,5.51.91-5.51,4.58-24.59h4.15l-9.62,47.39Z" transform="translate(-97.21 -103.34)"/><path class="cls-2" d="M168.52,206.24h3.87v46h-3.87Z" transform="translate(-97.21 -103.34)"/><path class="cls-2" d="M179.46,206.24H190.6v5.08h-7.28V229h6.24v5.08h-6.24v13.07h7.28v5.08H179.46Z" transform="translate(-97.21 -103.34)"/><path class="cls-2" d="M257.65,204.48l11,24.1,2.41,5.6-.11-5.52V206.24H275v47l-11-24-2.38-5,.13,5v23h-4.08Z" transform="translate(-97.21 -103.34)"/><path class="cls-2" d="M282.39,206.24h4.07v46h-4.07Z" transform="translate(-97.21 -103.34)"/><path class="cls-2" d="M304,230.63h4.07v22.1a11.83,11.83,0,0,1-6.16-1.31,14,14,0,0,1-5.07-4.56,24.5,24.5,0,0,1-3.44-7.72,41.34,41.34,0,0,1-1.27-10.77,42.41,42.41,0,0,1,1-9.64,26.35,26.35,0,0,1,2.64-7.11,13.07,13.07,0,0,1,3.82-4.4,7.82,7.82,0,0,1,4.53-1.5,7,7,0,0,1,2,.29,10.84,10.84,0,0,1,2.12.89l-1.84,4.65a3.77,3.77,0,0,0-1.09-.36,5.5,5.5,0,0,0-1.12-.13,4.51,4.51,0,0,0-2.85,1.12,9.87,9.87,0,0,0-2.51,3.32,23,23,0,0,0-1.79,5.44,36.33,36.33,0,0,0-.69,7.49,37.32,37.32,0,0,0,.57,6.83,24,24,0,0,0,1.57,5.31,13.25,13.25,0,0,0,2.41,3.74,8.26,8.26,0,0,0,3.09,2.1Z" transform="translate(-97.21 -103.34)"/><path class="cls-2" d="M314.59,206.24h4.08v25.51h7.68V206.24h4.07v46h-4.07V236.83h-7.68v15.38h-4.08Z" transform="translate(-97.21 -103.34)"/><path class="cls-2" d="M341.15,211.32h-5.47v-5.08h15v5.08h-5.47v40.89h-4.07Z" transform="translate(-97.21 -103.34)"/></g><g id="Objects"><path class="cls-3" d="M100,258.53l1.07,4.21a127.91,127.91,0,0,0,247.8.31l1.08-4.21Z" transform="translate(-97.21 -103.34)"/><path class="cls-1" d="M197.68,258.65l1.41,14.09a12.17,12.17,0,0,0,5.48,9c4.56,3,11.26,4.5,19.89,4.55h.39c8.45,0,15-1.46,19.56-4.35a12.14,12.14,0,0,0,5.57-9l1.59-14.28Z" transform="translate(-97.21 -103.34)"/><path class="cls-4" d="M224.86,209.85c-14.59-.08-23.14-2.44-28.12-5.38l6.84,67.82A7.71,7.71,0,0,0,207,278c2.84,1.85,8,3.77,17.47,3.82s14.65-1.82,17.5-3.63a7.74,7.74,0,0,0,3.51-5.67L253,204.77C248,207.65,239.46,209.93,224.86,209.85Z" transform="translate(-97.21 -103.34)"/><path class="cls-4" d="M224.88,207.23c-29-.15-35.21-9.69-31.18-16.76,4.58-8,31.31-7.87,31.31-7.87s26.37.12,31.22,8.2C260.42,197.77,253.9,207.38,224.88,207.23Z" transform="translate(-97.21 -103.34)"/><path class="cls-5" d="M254.25,195.23a13.37,13.37,0,0,1-4.8,2.85,35.64,35.64,0,0,1-5.9,1.65,80.91,80.91,0,0,1-12.8,1.35c-4.4.16-8.82.11-13.22-.14a72.75,72.75,0,0,1-12.65-1.71,29.47,29.47,0,0,1-5.64-1.9,10.45,10.45,0,0,1-4.16-3.12,8.16,8.16,0,0,0,.56.88,12.6,12.6,0,0,0,4.53,3.37,31.31,31.31,0,0,0,6,2.15A66.21,66.21,0,0,0,219,202.54a100.74,100.74,0,0,0,13.57,0c2.2-.16,4.4-.39,6.57-.75a46,46,0,0,0,6.25-1.42,27.68,27.68,0,0,0,5.66-2.34,9.64,9.64,0,0,0,3.86-3.6A7,7,0,0,1,254.25,195.23Z" transform="translate(-97.21 -103.34)"/><path class="cls-5" d="M225,192.85c2.67,0,4.84-.58,4.84-1.32,0-.38-.58-.73-1.52-1l2.52-7.71c-2.81-.19-4.9-.23-5.56-.24l-2.44,7.7c-1.58.21-2.66.66-2.66,1.18C220.12,192.22,222.28,192.83,225,192.85Z" transform="translate(-97.21 -103.34)"/><path class="cls-5" d="M201.17,206.54l6.45,60.34-2.93-59.24C203.41,207.3,202.24,206.93,201.17,206.54Z" transform="translate(-97.21 -103.34)"/><path class="cls-5" d="M207.16,208.22l3.14,34.57-.09-34C209.14,208.62,208.12,208.43,207.16,208.22Z" transform="translate(-97.21 -103.34)"/><path class="cls-5" d="M214.18,225.64l.93-16.24c-.9-.09-1.76-.18-2.6-.29Z" transform="translate(-97.21 -103.34)"/><path class="cls-4" d="M226.41,192.85h-3.33l10.59-33.38a9.15,9.15,0,0,1,5.83-5.83l15.6-5.1a.35.35,0,0,1,.44.22l.87,2.66a.35.35,0,0,1-.23.44L240.59,157a5.66,5.66,0,0,0-3.6,3.6Z" transform="translate(-97.21 -103.34)"/><path class="cls-2" d="M234.39,119.25h-6.22a.65.65,0,0,1-.63-.46l-1.93-5.91a.66.66,0,0,0-1.25,0l-1.93,5.91a.65.65,0,0,1-.63.46h-6.22a.66.66,0,0,0-.39,1.2l5,3.65a.66.66,0,0,1,.24.74l-1.93,5.92a.66.66,0,0,0,1,.74l5-3.66a.65.65,0,0,1,.77,0l5,3.66a.66.66,0,0,0,1-.74l-1.93-5.92a.66.66,0,0,1,.24-.74l5-3.65A.66.66,0,0,0,234.39,119.25Z" transform="translate(-97.21 -103.34)"/><path class="cls-2" d="M205.1,120.63l-6,1.61a.66.66,0,0,1-.73-.28L195,116.74a.66.66,0,0,0-1.21.33l-.33,6.21a.66.66,0,0,1-.49.61l-6,1.61a.66.66,0,0,0-.06,1.25l5.81,2.23a.66.66,0,0,1,.42.66l-.32,6.21a.66.66,0,0,0,1.17.45l3.92-4.84a.67.67,0,0,1,.75-.2l5.81,2.23a.66.66,0,0,0,.79-1l-3.39-5.22a.66.66,0,0,1,0-.78l3.92-4.84A.66.66,0,0,0,205.1,120.63Z" transform="translate(-97.21 -103.34)"/><path class="cls-2" d="M177.17,129.54l-5.39,3.12a.67.67,0,0,1-.78-.09l-4.62-4.16a.66.66,0,0,0-1.09.63l1.29,6.09a.66.66,0,0,1-.31.71L160.88,139a.66.66,0,0,0,.26,1.23l6.19.65a.67.67,0,0,1,.58.52l1.29,6.09a.66.66,0,0,0,1.25.13l2.53-5.69a.67.67,0,0,1,.68-.39l6.19.65a.66.66,0,0,0,.51-1.15l-4.63-4.16a.66.66,0,0,1-.16-.76l2.53-5.68A.66.66,0,0,0,177.17,129.54Z" transform="translate(-97.21 -103.34)"/><path class="cls-2" d="M152.49,145.38l-4.4,4.4a.65.65,0,0,1-.77.12l-5.54-2.82a.66.66,0,0,0-.89.89l2.83,5.54a.65.65,0,0,1-.13.77l-4.4,4.4a.66.66,0,0,0,.57,1.12l6.15-1a.66.66,0,0,1,.69.35l2.83,5.55a.66.66,0,0,0,1.24-.2l1-6.15a.68.68,0,0,1,.55-.55l6.15-1a.66.66,0,0,0,.2-1.24L153,152.79a.66.66,0,0,1-.35-.69l1-6.15A.66.66,0,0,0,152.49,145.38Z" transform="translate(-97.21 -103.34)"/><path class="cls-2" d="M132.76,167.07l-3.11,5.39a.66.66,0,0,1-.71.31l-6.09-1.29a.66.66,0,0,0-.63,1.09l4.16,4.62a.67.67,0,0,1,.09.78l-3.12,5.39a.66.66,0,0,0,.85.93l5.68-2.53a.66.66,0,0,1,.76.16l4.17,4.63A.66.66,0,0,0,136,186l-.65-6.18a.67.67,0,0,1,.39-.68l5.69-2.53a.66.66,0,0,0-.13-1.25l-6.09-1.29a.67.67,0,0,1-.52-.58l-.65-6.19A.66.66,0,0,0,132.76,167.07Z" transform="translate(-97.21 -103.34)"/><path class="cls-2" d="M326.62,183.36,323.5,178a.67.67,0,0,1,.09-.78l4.16-4.62a.66.66,0,0,0-.63-1.09L321,172.77a.66.66,0,0,1-.71-.31l-3.11-5.39a.66.66,0,0,0-1.23.26l-.65,6.19a.67.67,0,0,1-.52.58l-6.09,1.29a.66.66,0,0,0-.13,1.25l5.69,2.53a.67.67,0,0,1,.39.68L314,186a.66.66,0,0,0,1.15.52l4.16-4.63a.66.66,0,0,1,.76-.16l5.68,2.53A.66.66,0,0,0,326.62,183.36Z" transform="translate(-97.21 -103.34)"/><path class="cls-2" d="M310.78,158.68l-4.4-4.4a.64.64,0,0,1-.12-.77l2.82-5.54a.66.66,0,0,0-.89-.89l-5.54,2.82a.65.65,0,0,1-.77-.12l-4.4-4.4a.66.66,0,0,0-1.12.57l1,6.15a.66.66,0,0,1-.35.69l-5.55,2.83a.66.66,0,0,0,.2,1.24l6.15,1a.68.68,0,0,1,.55.55l1,6.15a.66.66,0,0,0,1.24.2l2.83-5.55a.66.66,0,0,1,.69-.35l6.15,1A.66.66,0,0,0,310.78,158.68Z" transform="translate(-97.21 -103.34)"/><path class="cls-2" d="M289.09,139l-5.39-3.11a.66.66,0,0,1-.31-.71l1.29-6.09a.66.66,0,0,0-1.09-.63L279,132.57a.67.67,0,0,1-.78.09l-5.39-3.12a.66.66,0,0,0-.93.85l2.53,5.68a.66.66,0,0,1-.16.76L269.61,141a.66.66,0,0,0,.52,1.15l6.18-.65a.67.67,0,0,1,.68.39l2.53,5.69a.66.66,0,0,0,1.25-.13l1.29-6.09a.67.67,0,0,1,.58-.52l6.19-.65A.66.66,0,0,0,289.09,139Z" transform="translate(-97.21 -103.34)"/><path class="cls-2" d="M263,125.5l-6-1.61a.66.66,0,0,1-.49-.61l-.33-6.21a.66.66,0,0,0-1.21-.33L251.61,122a.66.66,0,0,1-.73.28l-6-1.61a.66.66,0,0,0-.68,1.05l3.91,4.84a.66.66,0,0,1,0,.78l-3.39,5.22a.66.66,0,0,0,.79,1l5.81-2.23a.67.67,0,0,1,.75.2L256,136.3a.66.66,0,0,0,1.18-.45l-.33-6.21a.68.68,0,0,1,.42-.66l5.81-2.23A.66.66,0,0,0,263,125.5Z" transform="translate(-97.21 -103.34)"/><path class="cls-3" d="M101.73,198.48c2.62-10.7,7.14-19.75,12.4-29.49,6.11-11.34,14.68-21,23.82-30.07a124.43,124.43,0,0,1,53.89-31.1c39.38-11.14,84.22-1.12,114.78,26.13,10.42,9.29,20.33,20,27.45,32,6.38,10.77,11.49,21.61,14.46,33.47a141,141,0,0,0-14.74-28.6c-7.86-11.79-13.69-17.45-21.9-25.48a126.37,126.37,0,0,0-27.72-20.28,139.07,139.07,0,0,0-26.42-10.61c-15.89-4.85-33.77-5.38-50.14-3.15-23.57,3.21-45.56,13.53-63.71,28.77-10,8.41-20.2,18-27.25,29C110.45,178.75,105.53,187.7,101.73,198.48Z" transform="translate(-97.21 -103.34)"/></g></svg>